<?xml version="1.0" encoding="utf-8"?>
<!-- Generator: Adobe Illustrator 26.0.1, SVG Export Plug-In . SVG Version: 6.00 Build 0)  -->
<svg version="1.1" id="Layer_1" xmlns="http://www.w3.org/2000/svg" xmlns:xlink="http://www.w3.org/1999/xlink" x="0px" y="0px"
	 viewBox="0 0 1366 768" style="enable-background:new 0 0 1366 768;" xml:space="preserve">
<style type="text/css">
	.st0{fill:none;stroke:#000000;stroke-width:4.7723;stroke-linecap:round;stroke-linejoin:round;stroke-miterlimit:10;}
	.st1{fill:none;stroke:#000000;stroke-width:4.7735;stroke-linecap:round;stroke-linejoin:round;stroke-miterlimit:10;}
	.st2{fill:#FFFFFF;stroke:#000000;stroke-width:4.7723;stroke-linecap:round;stroke-linejoin:round;stroke-miterlimit:10;}
</style>
<g>
	<defs>
		<path id="SVGID_1_" d="M271.9,619.7c0,70.3-57,127.3-127.3,127.3c-37,0-69.5-25.4-95.4-39.3c-24.9-13.4-31.9-54.7-31.9-88
			c0-70.3,57-127.3,127.3-127.3S271.9,549.4,271.9,619.7z"/>
	</defs>
	<clipPath id="SVGID_00000000905492325225942020000002574499576449041286_">
		<use xlink:href="#SVGID_1_"  style="overflow:visible;"/>
	</clipPath>
	<g style="opacity:0.44;clip-path:url(#SVGID_00000000905492325225942020000002574499576449041286_);">
		
			<image style="overflow:visible;" width="643" height="644" xlink:href="A2638021.jpg"  transform="matrix(0.3977 0 0 0.3977 16.7828 491.6303)">
		</image>
	</g>
</g>
<path class="st0" d="M59.9,712.1L59.9,712.1c22.8,21.4,53.4,34.4,87.1,34.4c70.4,0,127.5-57.3,127.5-128s-57.1-128-127.5-128
	c-33.9,0-64.8,13.3-87.6,35c-5.9,5.7-11.3,11.9-16.1,18.5c-14.9,21-23.7,46.7-23.7,74.4c0,0.4,0,0.8,0,1.1c0,2.4,0.1,4.7,0.3,7
	c0,0,0,0,0,0c0.5,8.2,1.8,16.2,3.8,24"/>
<ellipse transform="matrix(0.2839 -0.9589 0.9589 0.2839 -513.9066 513.0615)" class="st1" cx="86.5" cy="600.6" rx="95.4" ry="64.1"/>
<path class="st0" d="M19.3,623.2C19.3,623.2,19.3,623.2,19.3,623.2c0,0.1,0,0.2,0.1,0.3c0,0,0,0,0,0c5.4,23.2,18.5,40.9,37.3,46.5
	c33.9,10.1,73.6-22.6,88.6-73.2c4.1-13.9,6-27.8,5.7-40.7c0,0,0,0.1,0,0.1"/>
<path class="st0" d="M153,593.6C153,593.6,153,593.7,153,593.6c0.8,14.3-0.9,29.7-5.6,45.2c-1.7,5.8-3.7,11.3-6.1,16.6"/>
<path class="st0" d="M130.7,674.7c-18.8,28.6-46.3,44.3-71,37.5c-0.3-0.1-0.7-0.2-1-0.3c-28.2-8.4-43.5-43.7-39.3-84.4
	c0,0,0,0,0-0.1c0-0.2,0-0.4,0.1-0.6"/>
<path class="st0" d="M202.1,705.5"/>
<path class="st0" d="M236.7,685.6"/>
<path class="st0" d="M126.1,739.5"/>
<path class="st0" d="M157,682.2"/>
<path class="st0" d="M130.8,684.1c0,0,0-29.3,5.8-29.8c0,0,8.4,0.4,15.1,6.6c17.2,16.1,36.2-47,36.2-47"/>
<path class="st0" d="M177.8,689.8c0,0,9.7-0.7,15,2.5"/>
<path class="st0" d="M135.2,746.2c0,0-6.6-10.5-2.4-17.5s31.9-39.5,29.6-41.5c-2.3-1.9-8.4-2.2-13.7-0.5"/>
<path class="st0" d="M211,666.1c0,0,14.1-6.6,17.8-6.6c7.9-0.1,12,18.9,12,18.9"/>
<path class="st0" d="M132,732.7c0,0,10.6-1.2,16.7,2.2"/>
<path class="st0" d="M197.4,741.4c0,0,0,0.1,0,0.1"/>
<path class="st0" d="M208.4,739.2c0,0.1-0.1,0.3-0.1,0.4"/>
<path class="st0" d="M197.3,741.5c-3.1-4.4,0.2-14.2,0.2-14.2"/>
<path class="st2" d="M228.8,716.7c0,4-2.9,21.7-10.6,25.6c-3.4,1.7-9.1-0.5-9.1-0.5c-0.4,0-0.7-0.9-0.9-2.2
	c-1.5,4.3-7.6,4.3-9.5,3.2c-0.6-0.3-1-0.8-1.4-1.3c-0.5,1-4.2,1.4-7.3,1.5c-2.5,0.1-4.7-1.8-4.9-4.3c-0.4-4.7,0-12.4,4.9-18.9
	C197.8,709.6,228.8,716.7,228.8,716.7z"/>
<path class="st0" d="M208.3,739.6c-0.5-3.3-0.2-9.2,1.8-9.3"/>
<path class="st0" d="M197.5,741.2c-0.5-1.9-1-5.2,0-9.1c0.4-1.6,1-2.9,1.6-4"/>
</svg>
